<svg id="Layer_1" data-name="Layer 1" xmlns="http://www.w3.org/2000/svg" xmlns:xlink="http://www.w3.org/1999/xlink" viewBox="0 0 380.75 62.85"><defs><style>.cls-1{fill:none;stroke-miterlimit:10;stroke-width:2px;stroke:url(#linear-gradient);}.cls-2{fill:#898989;}</style><linearGradient id="linear-gradient" x1="49.64" y1="19.41" x2="329.41" y2="19.41" gradientUnits="userSpaceOnUse"><stop offset="0" stop-color="#6fa0c3"/><stop offset="0.51" stop-color="#82c4ed"/><stop offset="1" stop-color="#6088a9"/></linearGradient></defs><path class="cls-1" d="M179,31.31H125.66l-4.18-4.18h-8.35M179,31.31,166.82,19.13H148.44L144,23.61l-4.47-4.48H121.12l-8,8M179,31.31h10.57l19-19m72.59-8.6h-64l-8.6,8.6M179,31.31l3.81,3.81h56.67M228.14,22.26a2.26,2.26,0,1,0-2.26,2.25,2.26,2.26,0,0,0,2.26-2.25m38.26.07h0M239.47,35.12a2.26,2.26,0,1,0,2.26-2.26,2.26,2.26,0,0,0-2.26,2.26M281.15,3.71a2.26,2.26,0,1,0,2.26-2.26,2.26,2.26,0,0,0-2.26,2.26m-53,18.55h31l3.67,3.66,3.58-3.59m-153.27,4.8H49.64M104,12.31a2.26,2.26,0,1,0-2.26,2.25A2.26,2.26,0,0,0,104,12.31m104.56,0H325.67M158.09,3.71a2.26,2.26,0,1,0,2.25-2.26,2.25,2.25,0,0,0-2.25,2.26m-101.44,0H158.09m50.47,8.6H104m162.4,10h0m0,0L270,25.92l3.66-3.66h55.77M56.65,35.12h48.49l8-8"/><path class="cls-2" d="M8,59.11a1.51,1.51,0,0,0-.59-1.27,7.53,7.53,0,0,0-2.11-.94,15.08,15.08,0,0,1-2.41-1A4,4,0,0,1,.44,52.41a3.46,3.46,0,0,1,.65-2.06A4.23,4.23,0,0,1,3,48.94a7,7,0,0,1,2.73-.51A6.54,6.54,0,0,1,8.4,49a4.37,4.37,0,0,1,1.85,1.56,4.07,4.07,0,0,1,.66,2.29H8a1.91,1.91,0,0,0-.62-1.52,2.53,2.53,0,0,0-1.73-.54A2.74,2.74,0,0,0,4,51.22a1.44,1.44,0,0,0-.59,1.2,1.36,1.36,0,0,0,.7,1.16,8.14,8.14,0,0,0,2.05.88,9,9,0,0,1,3.65,1.86,3.73,3.73,0,0,1,1.14,2.78A3.42,3.42,0,0,1,9.51,62a6.1,6.1,0,0,1-3.76,1,7.29,7.29,0,0,1-3-.6,4.73,4.73,0,0,1-2-1.65A4.2,4.2,0,0,1,0,58.37H2.94c0,1.57.94,2.36,2.81,2.36a2.75,2.75,0,0,0,1.63-.43A1.39,1.39,0,0,0,8,59.11Z"/><path class="cls-2" d="M16.61,62.85H13.68V48.63h2.93Z"/><path class="cls-2" d="M31.17,61.05a5.1,5.1,0,0,1-2.24,1.47,9.3,9.3,0,0,1-3.2.52,6.34,6.34,0,0,1-3.24-.81,5.32,5.32,0,0,1-2.14-2.33,8.17,8.17,0,0,1-.78-3.61v-1a8.74,8.74,0,0,1,.72-3.69,5.31,5.31,0,0,1,2.07-2.38,6,6,0,0,1,3.17-.83,5.9,5.9,0,0,1,3.95,1.21,5.11,5.11,0,0,1,1.69,3.51H28.32a2.86,2.86,0,0,0-.86-1.79,2.77,2.77,0,0,0-1.85-.57,2.6,2.6,0,0,0-2.27,1.13,5.86,5.86,0,0,0-.79,3.34v.91a5.56,5.56,0,0,0,.85,3.37,2.88,2.88,0,0,0,2.49,1.15A3.24,3.24,0,0,0,28.24,60V57.53H25.58V55.37h5.59Z"/><path class="cls-2" d="M45.71,62.85H42.78l-5.71-9.36v9.36H34.14V48.63h2.93L42.79,58V48.63h2.92Z"/><path class="cls-2" d="M57.07,59.92H51.93l-1,2.93H47.84l5.29-14.22h2.72l5.32,14.22H58.05Zm-4.35-2.38h3.56l-1.79-5.32Z"/><path class="cls-2" d="M66,60.49h6.22v2.36H63.1V48.63H66Z"/><path class="cls-2" d="M91.27,58.11a5.05,5.05,0,0,1-1.69,3.61,6,6,0,0,1-4,1.32,5.32,5.32,0,0,1-4.3-1.84,7.52,7.52,0,0,1-1.57-5.05v-.87a8.6,8.6,0,0,1,.72-3.62,5.34,5.34,0,0,1,2.07-2.39,6.43,6.43,0,0,1,7.08.48,5.43,5.43,0,0,1,1.74,3.7H88.36a3,3,0,0,0-.77-2,2.83,2.83,0,0,0-2-.62,2.5,2.5,0,0,0-2.2,1.05,5.92,5.92,0,0,0-.74,3.26v1.07a6.25,6.25,0,0,0,.7,3.37,2.43,2.43,0,0,0,2.2,1.07,2.89,2.89,0,0,0,2-.62,2.79,2.79,0,0,0,.77-1.92Z"/><path class="cls-2" d="M105.47,56.06a8.48,8.48,0,0,1-.74,3.68,5.56,5.56,0,0,1-2.12,2.44,6.29,6.29,0,0,1-6.33,0,5.59,5.59,0,0,1-2.14-2.43,8.34,8.34,0,0,1-.78-3.62v-.71a8.56,8.56,0,0,1,.76-3.69,5.58,5.58,0,0,1,2.14-2.45,6.24,6.24,0,0,1,6.32,0,5.65,5.65,0,0,1,2.14,2.45,8.55,8.55,0,0,1,.75,3.68Zm-3-.65a5.9,5.9,0,0,0-.8-3.39,2.59,2.59,0,0,0-2.28-1.17A2.64,2.64,0,0,0,97.14,52a6,6,0,0,0-.81,3.36v.7a6.1,6.1,0,0,0,.8,3.38,2.62,2.62,0,0,0,2.31,1.2,2.57,2.57,0,0,0,2.26-1.16,5.93,5.93,0,0,0,.8-3.37Z"/><path class="cls-2" d="M119.76,62.85h-2.93l-5.7-9.36v9.36H108.2V48.63h2.93L116.84,58V48.63h2.92Z"/><path class="cls-2" d="M134.49,62.85h-2.93l-5.71-9.36v9.36h-2.93V48.63h2.93L131.57,58V48.63h2.92Z"/><path class="cls-2" d="M146.2,56.68h-5.63v3.81h6.61v2.36h-9.54V48.63h9.52V51h-6.59v3.39h5.63Z"/><path class="cls-2" d="M160.66,58.11a5,5,0,0,1-1.7,3.61,6,6,0,0,1-4,1.32,5.35,5.35,0,0,1-4.3-1.84,7.57,7.57,0,0,1-1.56-5.05v-.87a8.6,8.6,0,0,1,.72-3.62,5.38,5.38,0,0,1,2.06-2.39,6.44,6.44,0,0,1,7.09.48,5.43,5.43,0,0,1,1.74,3.7h-2.93a3,3,0,0,0-.77-2,2.86,2.86,0,0,0-2-.62,2.5,2.5,0,0,0-2.19,1.05,6,6,0,0,0-.75,3.26v1.07a6.34,6.34,0,0,0,.7,3.37,2.45,2.45,0,0,0,2.2,1.07,2.92,2.92,0,0,0,2-.62,2.83,2.83,0,0,0,.77-1.92Z"/><path class="cls-2" d="M173.6,51h-4.35V62.85h-2.93V51H162V48.63H173.6Z"/><path class="cls-2" d="M179,62.85h-2.93V48.63H179Z"/><path class="cls-2" d="M194,56.06a8.63,8.63,0,0,1-.74,3.68,5.59,5.59,0,0,1-2.13,2.44,6.27,6.27,0,0,1-6.32,0,5.67,5.67,0,0,1-2.15-2.43,8.34,8.34,0,0,1-.77-3.62v-.71a8.42,8.42,0,0,1,.76-3.69,5.52,5.52,0,0,1,2.14-2.45,6.22,6.22,0,0,1,6.31,0,5.52,5.52,0,0,1,2.14,2.45,8.4,8.4,0,0,1,.76,3.68Zm-3-.65a6,6,0,0,0-.8-3.39,2.59,2.59,0,0,0-2.28-1.17A2.62,2.62,0,0,0,185.65,52a6,6,0,0,0-.81,3.36v.7a6.1,6.1,0,0,0,.8,3.38,2.8,2.8,0,0,0,4.57,0,6,6,0,0,0,.8-3.37Z"/><path class="cls-2" d="M208.27,62.85h-2.93l-5.7-9.36v9.36h-2.93V48.63h2.93L205.35,58V48.63h2.92Z"/><path class="cls-2" d="M218.8,59.11a1.5,1.5,0,0,0-.58-1.27,7.67,7.67,0,0,0-2.11-.94,14.7,14.7,0,0,1-2.41-1,3.94,3.94,0,0,1-2.43-3.52,3.46,3.46,0,0,1,.65-2.06,4.32,4.32,0,0,1,1.87-1.41,7,7,0,0,1,2.73-.51,6.49,6.49,0,0,1,2.71.55,4.31,4.31,0,0,1,1.85,1.56,4.07,4.07,0,0,1,.66,2.29h-2.93a1.9,1.9,0,0,0-.61-1.52,2.54,2.54,0,0,0-1.73-.54,2.72,2.72,0,0,0-1.67.45,1.43,1.43,0,0,0-.6,1.2,1.38,1.38,0,0,0,.7,1.16,8.24,8.24,0,0,0,2.06.88,8.91,8.91,0,0,1,3.64,1.86,3.73,3.73,0,0,1,1.14,2.78A3.41,3.41,0,0,1,220.35,62a6.12,6.12,0,0,1-3.76,1,7.26,7.26,0,0,1-3-.6,4.7,4.7,0,0,1-2.06-1.65,4.2,4.2,0,0,1-.71-2.42h2.94c0,1.57.94,2.36,2.82,2.36a2.77,2.77,0,0,0,1.63-.43A1.38,1.38,0,0,0,218.8,59.11Z"/><path class="cls-2" d="M229.33,59a3.25,3.25,0,0,1,.55-1.83,7.55,7.55,0,0,1,2-1.86,9.55,9.55,0,0,1-1-1.6,3.56,3.56,0,0,1-.36-1.56,3.62,3.62,0,0,1,1-2.7,3.85,3.85,0,0,1,2.83-1,3.69,3.69,0,0,1,2.61,1,3.09,3.09,0,0,1,1,2.36,3.73,3.73,0,0,1-1.72,3l-1.09.79,2.45,2.85a5.47,5.47,0,0,0,.57-2.5h2.41a7.33,7.33,0,0,1-1.28,4.49l2.13,2.48h-3.21l-.73-.84A6.41,6.41,0,0,1,234,63a5,5,0,0,1-3.38-1.11A3.67,3.67,0,0,1,229.33,59Zm4.78,1.75A3.58,3.58,0,0,0,236,60.2L233.24,57l-.21.14a2.25,2.25,0,0,0-.87,1.75,1.83,1.83,0,0,0,.54,1.37A1.92,1.92,0,0,0,234.11,60.77Zm-1-8.64a3.35,3.35,0,0,0,.86,1.85l.75-.5a2.63,2.63,0,0,0,.8-.72,1.64,1.64,0,0,0,.22-.84,1.13,1.13,0,0,0-.37-.85,1.38,1.38,0,0,0-1.89,0A1.42,1.42,0,0,0,233.08,52.13Z"/><path class="cls-2" d="M252.33,62.85H249.4V48.63h2.93Z"/><path class="cls-2" d="M267.2,62.85h-2.93l-5.7-9.36v9.36h-2.93V48.63h2.93L264.28,58V48.63h2.92Z"/><path class="cls-2" d="M280.78,51h-4.35V62.85H273.5V51h-4.3V48.63h11.58Z"/><path class="cls-2" d="M291.61,56.68H286v3.81h6.6v2.36h-9.53V48.63h9.51V51H286v3.39h5.63Z"/><path class="cls-2" d="M306.15,61.05a5.13,5.13,0,0,1-2.23,1.47,9.4,9.4,0,0,1-3.21.52,6.27,6.27,0,0,1-3.23-.81,5.29,5.29,0,0,1-2.15-2.33,8.17,8.17,0,0,1-.78-3.61v-1a8.74,8.74,0,0,1,.72-3.69,5.31,5.31,0,0,1,2.07-2.38,6,6,0,0,1,3.17-.83,5.9,5.9,0,0,1,3.95,1.21,5.11,5.11,0,0,1,1.69,3.51H303.3a2.86,2.86,0,0,0-.86-1.79,2.76,2.76,0,0,0-1.84-.57,2.6,2.6,0,0,0-2.28,1.13,5.94,5.94,0,0,0-.79,3.34v.91a5.56,5.56,0,0,0,.85,3.37,2.9,2.9,0,0,0,2.49,1.15,3.24,3.24,0,0,0,2.35-.71V57.53h-2.66V55.37h5.59Z"/><path class="cls-2" d="M314.39,57.64h-2.34v5.21h-2.93V48.63h5.29a5.94,5.94,0,0,1,3.88,1.12,3.86,3.86,0,0,1,1.37,3.17,4.39,4.39,0,0,1-.63,2.43,4.29,4.29,0,0,1-1.91,1.55l3.08,5.81v.14h-3.15Zm-2.34-2.37h2.37a2.46,2.46,0,0,0,1.71-.56,2,2,0,0,0,.6-1.55,2.14,2.14,0,0,0-.57-1.58,2.34,2.34,0,0,0-1.75-.58h-2.36Z"/><path class="cls-2" d="M330.52,59.92h-5.14l-1,2.93h-3.11l5.29-14.22h2.72l5.32,14.22H331.5Zm-4.35-2.38h3.56l-1.79-5.32Z"/><path class="cls-2" d="M346.08,51h-4.36V62.85h-2.93V51H334.5V48.63h11.58Z"/><path class="cls-2" d="M351.46,62.85h-2.93V48.63h2.93Z"/><path class="cls-2" d="M366.46,56.06a8.48,8.48,0,0,1-.75,3.68,5.56,5.56,0,0,1-2.12,2.44,6.27,6.27,0,0,1-6.32,0,5.61,5.61,0,0,1-2.15-2.43,8.2,8.2,0,0,1-.77-3.62v-.71a8.56,8.56,0,0,1,.75-3.69,5.65,5.65,0,0,1,2.14-2.45,6.24,6.24,0,0,1,6.32,0,5.58,5.58,0,0,1,2.14,2.45,8.55,8.55,0,0,1,.76,3.68Zm-3-.65a6,6,0,0,0-.8-3.39,2.82,2.82,0,0,0-4.56,0,5.83,5.83,0,0,0-.81,3.36v.7a6,6,0,0,0,.8,3.38,2.8,2.8,0,0,0,4.57,0,6.09,6.09,0,0,0,.8-3.37Z"/><path class="cls-2" d="M380.75,62.85h-2.93l-5.7-9.36v9.36h-2.93V48.63h2.93L377.83,58V48.63h2.92Z"/></svg>